#N canvas 230 158 1043 823 10;
#X obj 19 396 bng 15 250 50 0 empty empty empty 17 7 0 10 -262144 -1
-1;
#X obj 19 443 f;
#N canvas 331 232 222 177 diff 0;
#X obj 78 92 f;
#X obj 93 66 t f b f;
#X obj 78 113 -, f 10;
#X obj 78 135 s diff;
#X text 77 22 difference;
#X obj 33 135 outlet;
#X obj 93 43 inlet;
#X connect 0 0 2 0;
#X connect 1 0 0 1;
#X connect 1 1 0 0;
#X connect 1 2 2 1;
#X connect 2 0 3 0;
#X connect 2 0 5 0;
#X connect 6 0 1 0;
#X restore 92 488 pd diff;
#X floatatom 92 510 5 0 0 0 - - -, f 5;
#X obj 22 764 noteout;
#N canvas 618 50 794 749 newNote 0;
#X obj 9 157 r stepUp;
#X obj 338 159 r stepDown;
#X obj 177 29 r leapUp;
#X obj 237 29 r leapDown;
#X obj 9 179 sel 1;
#X obj 338 181 sel 1;
#X obj 177 51 sel 1;
#X obj 237 51 sel 1;
#X obj 9 201 bng 15 250 50 0 empty empty empty 17 7 0 10 -262144 -1
-1;
#X obj 338 203 bng 15 250 50 0 empty empty empty 17 7 0 10 -262144
-1 -1;
#X obj 177 73 bng 15 250 50 0 empty empty empty 17 7 0 10 -262144 -1
-1;
#X obj 237 73 bng 15 250 50 0 empty empty empty 17 7 0 10 -262144 -1
-1;
#X obj 9 221 random 2;
#X obj 9 265 random 2;
#X obj 9 287 sel 0 1, f 34;
#X obj 9 479 random 3;
#X obj 9 504 tabread stepsUp;
#X obj 199 479 random 3;
#X obj 199 501 tabread stepsDown;
#X obj 9 242 sel 0 1, f 44;
#X msg 313 501 1;
#X msg 177 93 -1;
#X msg 237 93 1;
#X obj 323 52 r zeroStep;
#X obj 323 74 sel 1;
#X msg 323 96 1;
#X obj 177 115 s stepAdd;
#X obj 338 227 random 2;
#X obj 338 271 random 2;
#X obj 338 293 sel 0 1, f 34;
#X obj 338 405 random 3;
#X obj 338 427 tabread stepsUp;
#X obj 438 405 random 3;
#X obj 438 427 tabread stepsDown;
#X obj 338 248 sel 0 1, f 44;
#X obj 338 459 s stepAdd;
#X msg 552 428 -1;
#X obj 8 7 inlet;
#X obj 8 132 s currStep;
#X obj 8 81 % 7;
#X floatatom 28 103 5 0 0 0 - - -, f 5;
#X obj 8 29 t f f f f, f 24;
#N canvas 576 241 932 530 outOfRange 0;
#X obj 47 25 inlet;
#X obj 217 25 inlet;
#X obj 357 25 inlet;
#X obj 342 447 s newNote;
#X obj 342 290 r stepAdd;
#X obj 342 312 spigot, f 11;
#X obj 405 181 &&;
#X obj 47 157 >, f 5;
#X obj 47 179 sel 0;
#X obj 89 54 r startNote;
#X obj 89 117 +, f 7;
#X obj 101 75 r rangeDown;
#X obj 101 95 t b f;
#X obj 74 138 f;
#X obj 217 179 sel 0;
#X obj 259 54 r startNote;
#X obj 259 117 +, f 7;
#X obj 271 95 t b f;
#X obj 244 138 f;
#X obj 271 75 r rangeUp;
#X obj 217 157 <, f 5;
#X obj 47 201 random 2;
#X obj 47 223 sel 0 1, f 24;
#X obj 47 245 random 3;
#X obj 47 267 tabread stepsUp;
#X msg 117 245 1;
#X obj 217 201 random 2;
#X obj 217 223 sel 0 1, f 24;
#X obj 217 245 random 3;
#X obj 217 267 tabread stepsDown;
#X msg 287 245 -1;
#X floatatom 111 139 5 0 0 0 - - -, f 5;
#X floatatom 94 160 5 0 0 0 - - -, f 5;
#X obj 47 54 t f b;
#X obj 217 54 t f b;
#X msg 22 341 too low;
#X obj 22 363 print;
#X obj 83 363 print;
#X msg 83 341 too high;
#X obj 342 407 +;
#X floatatom 382 417 5 0 0 0 - - -, f 5;
#X obj 342 385 clip -7 7;
#X obj 426 300 r rangeOSC;
#X obj 421 334 * 7;
#X obj 471 362 * -7;
#X text 487 76 tonhöjden är under givet tal (beroende på grundtonen)
så blir nästa ton uppåtgående på olika sätt. om tonhöjden är
över givet tal så blir nästa ton nedåtgående. sedan har jag också
lagt på ett clip-objekt på slutet som ser till att nästa intervall
håller sig inom ramen för rangeOSC.;
#X obj 471 384 i;
#X obj 421 356 i;
#X connect 0 0 33 0;
#X connect 1 0 34 0;
#X connect 2 0 39 1;
#X connect 4 0 5 0;
#X connect 5 0 41 0;
#X connect 6 0 5 1;
#X connect 7 0 8 0;
#X connect 7 0 6 0;
#X connect 8 0 21 0;
#X connect 8 0 35 0;
#X connect 9 0 10 0;
#X connect 10 0 13 1;
#X connect 10 0 31 0;
#X connect 11 0 12 0;
#X connect 12 0 10 0;
#X connect 12 1 10 1;
#X connect 13 0 7 1;
#X connect 13 0 32 0;
#X connect 14 0 26 0;
#X connect 14 0 38 0;
#X connect 15 0 16 0;
#X connect 16 0 18 1;
#X connect 17 0 16 0;
#X connect 17 1 16 1;
#X connect 18 0 20 1;
#X connect 19 0 17 0;
#X connect 20 0 14 0;
#X connect 20 0 6 1;
#X connect 21 0 22 0;
#X connect 22 0 23 0;
#X connect 22 1 25 0;
#X connect 23 0 24 0;
#X connect 24 0 41 0;
#X connect 25 0 41 0;
#X connect 26 0 27 0;
#X connect 27 0 28 0;
#X connect 27 1 30 0;
#X connect 28 0 29 0;
#X connect 29 0 41 0;
#X connect 30 0 41 0;
#X connect 33 0 7 0;
#X connect 33 1 13 0;
#X connect 34 0 20 0;
#X connect 34 1 18 0;
#X connect 35 0 36 0;
#X connect 38 0 37 0;
#X connect 39 0 3 0;
#X connect 41 0 39 0;
#X connect 41 0 40 0;
#X connect 42 0 43 0;
#X connect 42 0 44 0;
#X connect 43 0 47 0;
#X connect 44 0 46 0;
#X connect 46 0 41 1;
#X connect 47 0 41 2;
#X restore 55 53 pd outOfRange;
#X text 52 200 if last note was an upwards step;
#X text 372 200 if last note was a downwards step;
#X obj 54 348 r currStep;
#X obj 204 348 r currStep;
#X obj 382 318 r currStep;
#X obj 532 318 r currStep;
#X floatatom 91 544 5 0 0 0 - - -, f 5;
#X obj 54 380 expr if($i1 == 6 \, 2 \, 3);
#X obj 204 380 expr if($i1 == 6 \, 2 \, 3);
#X obj 382 350 expr if($i1 == 6 \, 2 \, 3);
#X obj 532 350 expr if($i1 == 6 \, 2 \, 3);
#X obj 9 675 s stepAdd;
#X obj 9 613 s stepAdd;
#X connect 0 0 4 0;
#X connect 1 0 5 0;
#X connect 2 0 6 0;
#X connect 3 0 7 0;
#X connect 4 0 8 0;
#X connect 5 0 9 0;
#X connect 6 0 10 0;
#X connect 7 0 11 0;
#X connect 8 0 12 0;
#X connect 9 0 27 0;
#X connect 10 0 21 0;
#X connect 11 0 22 0;
#X connect 12 0 19 0;
#X connect 13 0 14 0;
#X connect 14 0 15 0;
#X connect 14 1 17 0;
#X connect 15 0 16 0;
#X connect 16 0 49 0;
#X connect 16 0 55 0;
#X connect 17 0 18 0;
#X connect 18 0 55 0;
#X connect 19 0 13 0;
#X connect 19 1 20 0;
#X connect 20 0 55 0;
#X connect 21 0 26 0;
#X connect 22 0 26 0;
#X connect 23 0 24 0;
#X connect 24 0 25 0;
#X connect 25 0 26 0;
#X connect 27 0 34 0;
#X connect 28 0 29 0;
#X connect 29 0 30 0;
#X connect 29 1 32 0;
#X connect 30 0 31 0;
#X connect 31 0 35 0;
#X connect 32 0 33 0;
#X connect 33 0 35 0;
#X connect 34 0 28 0;
#X connect 34 1 36 0;
#X connect 36 0 35 0;
#X connect 37 0 41 0;
#X connect 39 0 38 0;
#X connect 39 0 40 0;
#X connect 41 0 39 0;
#X connect 41 1 42 0;
#X connect 41 2 42 1;
#X connect 41 3 42 2;
#X connect 45 0 50 0;
#X connect 46 0 51 0;
#X connect 47 0 52 0;
#X connect 48 0 53 0;
#X connect 50 0 15 1;
#X connect 51 0 17 1;
#X connect 52 0 30 1;
#X connect 53 0 32 1;
#X restore 166 488 pd newNote;
#X obj 45 406 r newNote;
#X floatatom 62 438 5 0 0 0 - - -, f 5;
#X obj 19 210 tgl 15 0 empty on/off empty 17 7 0 10 -262144 -1 -1 1
1;
#X obj 109 225 sel 0;
#X obj 19 246 metro 250;
#X obj 22 731 makenote 30 200;
#X obj 19 270 t b b b;
#X obj 70 202 r newTime;
#X obj 34 365 f, f 8;
#X obj 52 321 r startNote;
#X obj 52 343 t b f;
#X obj 34 301 r reset;
#X obj 109 247 s reset;
#X obj 654 365 pack f f, f 14;
#X obj 708 339 t b f;
#X msg 729 411 read scales/\$1/\$2.txt;
#N canvas 658 79 573 579 newTime 0;
#X obj 161 405 outlet;
#X obj 31 86 bng 15 250 50 0 empty empty empty 17 7 0 10 -262144 -1
-1;
#X obj 31 142 sel 0 1, f 22;
#X obj 146 41 loadbang;
#X msg 181 273 \; double 1;
#X msg 146 63 \; double 0;
#X msg 211 203 \; double 0;
#X obj 31 120 expr if($i2 > 0 \, 1 \, 0);
#X obj 160 100 r double;
#X obj 31 388 *;
#X obj 63 345 r time;
#X obj 31 410 s newTime;
#X obj 34 51 inlet;
#X msg 61 271 0.5;
#X msg 31 271 1;
#X msg 95 206 0.5;
#X obj 94 499 f;
#X obj 121 498 + 1;
#X obj 94 475 bng 15 250 50 0 empty empty empty 17 7 0 10 -262144 -1
-1;
#X obj 127 432 r reset;
#X msg 127 454 0;
#X obj 94 521 s count;
#X obj 98 174 r timeChance;
#X obj 31 226 moses 50;
#X obj 31 174 random 100;
#X connect 1 0 7 0;
#X connect 2 0 24 0;
#X connect 2 1 15 0;
#X connect 2 1 6 0;
#X connect 3 0 5 0;
#X connect 7 0 2 0;
#X connect 8 0 7 1;
#X connect 9 0 11 0;
#X connect 9 0 0 0;
#X connect 10 0 9 1;
#X connect 12 0 1 0;
#X connect 13 0 9 0;
#X connect 13 0 18 0;
#X connect 14 0 9 0;
#X connect 14 0 18 0;
#X connect 15 0 9 0;
#X connect 16 0 17 0;
#X connect 16 0 21 0;
#X connect 17 0 16 1;
#X connect 18 0 16 0;
#X connect 19 0 20 0;
#X connect 20 0 16 1;
#X connect 22 0 23 1;
#X connect 23 0 4 0;
#X connect 23 0 13 0;
#X connect 23 1 14 0;
#X connect 24 0 23 0;
#X restore 130 321 pd newTime;
#X obj 19 488 s noteTrig1;
#X obj 22 528 r noteTrig1;
#N canvas 639 231 567 463 chord 0;
#X obj 51 35 inlet;
#X obj 51 139 == 0;
#X msg 51 227 2 4;
#X obj 51 249 unpack;
#X obj 51 182 random 2;
#X obj 51 204 sel 0 1;
#X obj 51 161 sel 1;
#X obj 51 375 quantizeOctave;
#X obj 51 397 outlet;
#X obj 141 375 quantizeOctave;
#X obj 51 109 % 7;
#X obj 51 351 +;
#X obj 141 352 +;
#X obj 495 128 i;
#X obj 495 150 * 7;
#X obj 495 107 / 7;
#X obj 197 322 r \$0transpose;
#X obj 495 172 s \$0transpose;
#X obj 152 269 unpack;
#X obj 152 121 sel 1;
#X obj 152 79 % 7;
#X obj 152 99 == 3;
#X msg 152 247 0 5;
#X obj 253 249 unpack;
#X obj 253 182 random 2;
#X obj 253 204 sel 0 1;
#X obj 253 161 sel 1;
#X obj 253 109 % 7;
#X obj 253 139 == 4;
#X msg 253 227 1 6;
#X obj 152 142 random 20;
#X obj 152 164 moses 5;
#X obj 152 189 bng 15 250 50 0 empty empty empty 17 7 0 10 -262144
-1 -1;
#X obj 51 57 t f f f f f f f, f 80;
#X obj 333 269 unpack;
#X obj 333 161 sel 1;
#X obj 333 109 % 7;
#X obj 333 139 == 2;
#X obj 333 182 random 20;
#X obj 333 226 bng 15 250 50 0 empty empty empty 17 7 0 10 -262144
-1 -1;
#X msg 333 247 4 8;
#X obj 333 204 moses 6;
#X connect 0 0 33 0;
#X connect 1 0 6 0;
#X connect 2 0 3 0;
#X connect 3 0 11 0;
#X connect 3 1 12 0;
#X connect 4 0 5 0;
#X connect 5 0 2 0;
#X connect 6 0 4 0;
#X connect 7 0 8 0;
#X connect 9 0 8 0;
#X connect 10 0 1 0;
#X connect 11 0 7 0;
#X connect 12 0 9 0;
#X connect 13 0 14 0;
#X connect 14 0 17 0;
#X connect 15 0 13 0;
#X connect 16 0 12 1;
#X connect 16 0 11 1;
#X connect 18 0 11 0;
#X connect 18 1 12 0;
#X connect 19 0 30 0;
#X connect 20 0 21 0;
#X connect 21 0 19 0;
#X connect 22 0 18 0;
#X connect 23 0 11 0;
#X connect 23 1 12 0;
#X connect 24 0 25 0;
#X connect 25 0 29 0;
#X connect 26 0 24 0;
#X connect 27 0 28 0;
#X connect 28 0 26 0;
#X connect 29 0 23 0;
#X connect 30 0 31 0;
#X connect 31 0 32 0;
#X connect 32 0 22 0;
#X connect 33 0 10 0;
#X connect 33 1 20 0;
#X connect 33 2 27 0;
#X connect 33 3 36 0;
#X connect 33 6 15 0;
#X connect 34 0 11 0;
#X connect 34 1 12 0;
#X connect 35 0 38 0;
#X connect 36 0 37 0;
#X connect 37 0 35 0;
#X connect 38 0 41 0;
#X connect 39 0 40 0;
#X connect 40 0 34 0;
#X connect 41 0 39 0;
#X restore 240 536 pd chord;
#X obj 22 550 quantizeOctave;
#X obj 240 754 noteout;
#X obj 240 732 makenote 40 600;
#X obj 240 496 spigot;
#X obj 277 441 r chordOn;
#X obj 240 604 t f b;
#X obj 285 662 + 5;
#X obj 285 640 random 60;
#X obj 240 686 pack f f;
#X obj 393 533 r newTime;
#X obj 382 560 f;
#X obj 314 522 bng 15 250 50 0 empty empty empty 17 7 0 10 -262144
-1 -1;
#X obj 580 364 s globTrans;
#X obj 19 465 t f f f f f f, f 62;
#X obj 729 435 s scaleChoose;
#N canvas 0 50 997 577 return 0;
#X obj 47 29 inlet;
#X obj 47 203 route 1 2 3;
#X obj 127 203 route 1 2 3;
#X obj 207 203 route 1 2 3;
#X msg 47 225 C Major!;
#X msg 67 245 C Minor!;
#X msg 87 265 C MinMaj!;
#X obj 47 51 route 0 1 2 3 4 5 6 7 8 9 10;
#X obj 287 203 route 1 2 3;
#X obj 367 203 route 1 2 3;
#X obj 447 203 route 1 2 3;
#X obj 527 203 route 1 2 3;
#X msg 447 225 F Major!;
#X msg 467 245 F Minor!;
#X msg 487 265 F MinMaj!;
#X obj 607 203 route 1 2 3;
#X obj 687 203 route 1 2 3;
#X obj 767 203 route 1 2 3;
#X obj 847 203 route 1 2 3;
#X msg 127 225 C# Major!;
#X msg 147 245 C# Minor!;
#X msg 167 265 C# MinMaj!;
#X msg 207 225 D Major!;
#X msg 227 245 D Minor!;
#X msg 247 265 D MinMaj!;
#X msg 287 225 Eb Major!;
#X msg 307 245 Eb Minor!;
#X msg 327 265 Eb MinMaj!;
#X msg 367 225 E Major!;
#X msg 387 245 E Minor!;
#X msg 407 265 E MinMaj!;
#X msg 527 225 F# Major!;
#X msg 547 245 F# Minor!;
#X msg 567 265 F# MinMaj!;
#X msg 607 225 G Major!;
#X msg 627 245 G Minor!;
#X msg 647 265 G MinMaj!;
#X msg 687 225 Ab Major!;
#X msg 707 245 Ab Minor!;
#X msg 727 265 Ab MinMaj!;
#X msg 767 225 A Major!;
#X msg 787 245 A Minor!;
#X msg 807 265 A MinMaj!;
#X text 837 294 jag glömde Bb...;
#X msg 887 266 B MinMaj!;
#X msg 867 245 B Minor!;
#X msg 847 225 B Major!;
#X obj 92 446 print;
#X connect 0 0 7 0;
#X connect 1 0 4 0;
#X connect 1 1 5 0;
#X connect 1 2 6 0;
#X connect 2 0 19 0;
#X connect 2 1 20 0;
#X connect 2 2 21 0;
#X connect 3 0 22 0;
#X connect 3 1 23 0;
#X connect 3 2 24 0;
#X connect 4 0 47 0;
#X connect 5 0 47 0;
#X connect 6 0 47 0;
#X connect 7 0 1 0;
#X connect 7 1 2 0;
#X connect 7 2 3 0;
#X connect 7 3 8 0;
#X connect 7 4 9 0;
#X connect 7 5 10 0;
#X connect 7 6 11 0;
#X connect 7 7 15 0;
#X connect 7 8 16 0;
#X connect 7 9 17 0;
#X connect 7 10 18 0;
#X connect 8 0 25 0;
#X connect 8 1 26 0;
#X connect 8 2 27 0;
#X connect 9 0 28 0;
#X connect 9 1 29 0;
#X connect 9 2 30 0;
#X connect 10 0 12 0;
#X connect 10 1 13 0;
#X connect 10 2 14 0;
#X connect 11 0 31 0;
#X connect 11 1 32 0;
#X connect 11 2 33 0;
#X connect 12 0 47 0;
#X connect 13 0 47 0;
#X connect 14 0 47 0;
#X connect 15 0 34 0;
#X connect 15 1 35 0;
#X connect 15 2 36 0;
#X connect 16 0 37 0;
#X connect 16 1 38 0;
#X connect 16 2 39 0;
#X connect 17 0 40 0;
#X connect 17 1 41 0;
#X connect 17 2 42 0;
#X connect 18 0 46 0;
#X connect 18 1 45 0;
#X connect 18 2 44 0;
#X connect 19 0 47 0;
#X connect 20 0 47 0;
#X connect 21 0 47 0;
#X connect 22 0 47 0;
#X connect 23 0 47 0;
#X connect 24 0 47 0;
#X connect 25 0 47 0;
#X connect 26 0 47 0;
#X connect 27 0 47 0;
#X connect 28 0 47 0;
#X connect 29 0 47 0;
#X connect 30 0 47 0;
#X connect 31 0 47 0;
#X connect 32 0 47 0;
#X connect 33 0 47 0;
#X connect 34 0 47 0;
#X connect 35 0 47 0;
#X connect 36 0 47 0;
#X connect 37 0 47 0;
#X connect 38 0 47 0;
#X connect 39 0 47 0;
#X connect 40 0 47 0;
#X connect 41 0 47 0;
#X connect 42 0 47 0;
#X connect 44 0 47 0;
#X connect 45 0 47 0;
#X connect 46 0 47 0;
#X restore 654 411 pd return;
#X obj 654 387 t a a, f 13;
#N canvas 467 94 223 550 vel 0;
#X obj 60 427 outlet;
#X obj 105 15 r count;
#X floatatom 105 37 5 0 0 0 - - -, f 5;
#X obj 105 56 % 16;
#X floatatom 105 78 5 0 0 0 - - -, f 5;
#X obj 60 172 t f b;
#X obj 87 193 random 20;
#X obj 60 238 +, f 5;
#X obj 87 215 - 10;
#X floatatom 117 239 5 0 0 0 - - -, f 5;
#X obj 60 26 inlet;
#X obj 60 147 f, f 8;
#X floatatom 60 384 5 0 127 0 - - -, f 5;
#X obj 105 97 * 8;
#X obj 60 260 t f f f;
#X obj 109 286 > -1;
#X obj 141 287 < 128;
#X obj 109 308 &&;
#X obj 109 330 sel 0;
#X obj 60 350 spigot;
#X connect 1 0 2 0;
#X connect 2 0 3 0;
#X connect 3 0 4 0;
#X connect 4 0 13 0;
#X connect 5 0 7 0;
#X connect 5 1 6 0;
#X connect 6 0 8 0;
#X connect 7 0 9 0;
#X connect 7 0 14 0;
#X connect 8 0 7 1;
#X connect 10 0 11 0;
#X connect 11 0 5 0;
#X connect 12 0 0 0;
#X connect 13 0 11 1;
#X connect 14 0 19 0;
#X connect 14 1 15 0;
#X connect 14 2 16 0;
#X connect 15 0 17 0;
#X connect 16 0 17 1;
#X connect 17 0 18 0;
#X connect 17 0 19 1;
#X connect 19 0 12 0;
#X restore 65 622 pd vel;
#X obj 22 572 t f b;
#N canvas 910 332 450 300 octaveUp 1;
#X obj 19 17 inlet;
#X obj 19 39 t b;
#X obj 19 61 random 100;
#X obj 19 83 moses 50;
#X msg 19 108 0;
#X obj 19 167 s addOctave;
#X obj 59 149 bng 15 250 50 0 empty empty empty 17 7 0 10 -262144 -1
-1;
#X obj 116 143 bng 15 250 50 0 empty empty empty 17 7 0 10 -262144
-1 -1;
#X msg 64 113 12;
#X obj 112 19 r octaveChance;
#X connect 0 0 1 0;
#X connect 1 0 2 0;
#X connect 2 0 3 0;
#X connect 3 0 8 0;
#X connect 3 1 4 0;
#X connect 4 0 5 0;
#X connect 4 0 6 0;
#X connect 8 0 5 0;
#X connect 8 0 7 0;
#X connect 9 0 3 1;
#X restore 388 492 pd octaveUp;
#X obj 22 624 + 0;
#X obj 33 599 r addOctave;
#X obj 654 263 r key;
#X obj 707 301 r scale;
#X obj 180 8 cnv 15 240 210 empty empty empty 20 12 0 14 -204800 -66577
0;
#N canvas 712 108 401 346 printBoolean 0;
#X obj 30 16 r stepUp;
#X obj 90 16 r stepDown;
#X obj 160 16 r leapUp;
#X obj 220 16 r leapDown;
#X obj 30 38 sel 1;
#X obj 90 38 sel 1;
#X obj 160 38 sel 1;
#X obj 220 38 sel 1;
#X obj 30 60 bng 15 250 50 0 empty empty empty 17 7 0 10 -262144 -1
-1;
#X obj 90 60 bng 15 250 50 0 empty empty empty 17 7 0 10 -262144 -1
-1;
#X obj 160 60 bng 15 250 50 0 empty empty empty 17 7 0 10 -262144 -1
-1;
#X obj 220 60 bng 15 250 50 0 empty empty empty 17 7 0 10 -262144 -1
-1;
#X msg 30 130 stepUp;
#X obj 30 152 print;
#X msg 90 130 stepDown;
#X obj 90 152 print;
#X msg 160 130 leapUp;
#X obj 160 152 print;
#X obj 220 152 print;
#X msg 220 130 leapDown;
#X obj 30 80 spigot;
#X obj 90 80 spigot;
#X obj 160 80 spigot;
#X obj 220 80 spigot;
#X obj 316 35 inlet;
#X connect 0 0 4 0;
#X connect 1 0 5 0;
#X connect 2 0 6 0;
#X connect 3 0 7 0;
#X connect 4 0 8 0;
#X connect 5 0 9 0;
#X connect 6 0 10 0;
#X connect 7 0 11 0;
#X connect 8 0 20 0;
#X connect 9 0 21 0;
#X connect 10 0 22 0;
#X connect 11 0 23 0;
#X connect 12 0 13 0;
#X connect 14 0 15 0;
#X connect 16 0 17 0;
#X connect 19 0 18 0;
#X connect 20 0 12 0;
#X connect 21 0 14 0;
#X connect 22 0 16 0;
#X connect 23 0 19 0;
#X connect 24 0 23 1;
#X connect 24 0 22 1;
#X connect 24 0 21 1;
#X connect 24 0 20 1;
#X restore 325 117 pd printBoolean;
#X obj 325 98 tgl 15 0 empty empty empty 17 7 0 10 -262144 -1 -1 0
1;
#X obj 240 74 tgl 20 0 chordOn chordOnBox chordOn -50 10 0 10 -262144
-1 -1 0 1;
#X floatatom 276 119 5 0 100 0 octaveChance octaveChanceBox octaveChance
, f 5;
#X floatatom 240 16 5 0 0 0 rangeDown rangeDownBox rangeDown, f 5
;
#X floatatom 240 36 5 0 0 0 rangeUp rangeUpBox rangeUp, f 5;
#X floatatom 240 56 5 0 0 0 startNote startNoteBox startNote, f 5
;
#X floatatom 240 98 5 0 0 0 time timeBox time, f 5;
#X obj 306 23 tgl 20 0 on/off on/offBox PLAY -10 30 0 16 -262144 -258113
-260097 1 1;
#X floatatom 376 36 5 0 10 0 KEY keyBox key, f 5;
#X floatatom 376 56 5 1 3 0 SCALE scaleBox scale, f 5;
#X obj 187 150 r count;
#X obj 187 172 % 16;
#X floatatom 187 194 5 0 0 0 - - -, f 5;
#N canvas 968 95 339 296 arrays 0;
#X obj 14 11 loadbang;
#X obj 14 68 array define scale;
#X obj 14 90 loadbang;
#X msg 14 112 read steps/stepsUp.txt \, resize 4;
#X obj 14 134 array define stepsUp;
#X obj 14 156 loadbang;
#X msg 14 178 read steps/stepsDown.txt \, resize 4;
#X obj 14 200 array define stepsDown;
#X obj 215 34 r scaleChoose;
#X msg 14 33 read scales/1/1.txt \, resize 7;
#X connect 0 0 9 0;
#X connect 2 0 3 0;
#X connect 3 0 4 0;
#X connect 5 0 6 0;
#X connect 6 0 7 0;
#X connect 8 0 1 0;
#X connect 9 0 1 0;
#X restore 11 53 pd arrays;
#X obj 443 18 cnv 15 270 100 empty empty empty 20 12 0 14 -203904 -66577
0;
#X obj 449 44 tgl 15 0 empty empty empty 17 7 0 10 -262144 -1 -1 0
1;
#X obj 525 44 tgl 15 0 empty empty empty 17 7 0 10 -262144 -1 -1 1
1;
#X obj 450 78 r stepUp;
#X floatatom 450 100 5 0 0 0 - - -, f 5;
#X obj 512 77 r stepDown;
#X floatatom 512 99 5 0 0 0 - - -, f 5;
#X obj 581 77 r leapUp;
#X floatatom 581 99 5 0 0 0 - - -, f 5;
#X obj 638 77 r leapDown;
#X floatatom 638 99 5 0 0 0 - - -, f 5;
#N canvas 870 158 359 273 isStep 0;
#X obj 38 22 r diff;
#X obj 38 74 == 1;
#X floatatom 38 96 5 0 0 0 - - -, f 5;
#X floatatom 79 96 5 0 0 0 - - -, f 5;
#X obj 79 74 == -1;
#X obj 38 149 ||;
#X floatatom 38 171 5 0 0 0 - - -, f 5;
#X text 35 3 boolean: stegvis?;
#X obj 38 190 outlet;
#X obj 193 114 s stepUp;
#X obj 121 115 s stepDown;
#X obj 38 44 t f f;
#X connect 0 0 11 0;
#X connect 1 0 2 0;
#X connect 2 0 5 0;
#X connect 2 0 10 0;
#X connect 3 0 9 0;
#X connect 3 0 5 1;
#X connect 4 0 3 0;
#X connect 5 0 6 0;
#X connect 6 0 8 0;
#X connect 11 0 1 0;
#X connect 11 1 4 0;
#X restore 449 23 pd isStep;
#N canvas 722 67 341 312 isLeap 0;
#X obj 26 36 r diff;
#X obj 26 98 == 2;
#X obj 287 98 == -5;
#X obj 26 153 ||;
#X obj 100 153 ||;
#X obj 175 153 ||;
#X obj 249 153 ||;
#X obj 26 205 ||;
#X obj 175 205 ||;
#X obj 26 244 ||;
#X obj 26 266 outlet;
#X obj 175 234 s leapUp;
#X obj 107 234 s leapDown;
#X obj 63 98 == 3;
#X obj 100 98 == 4;
#X obj 137 98 == 5;
#X obj 175 98 == -2;
#X obj 212 98 == -3;
#X obj 249 98 == -4;
#X obj 26 58 t f f f f f f f f, f 44;
#X connect 0 0 19 0;
#X connect 1 0 3 0;
#X connect 2 0 6 1;
#X connect 3 0 7 0;
#X connect 4 0 7 1;
#X connect 5 0 8 0;
#X connect 6 0 8 1;
#X connect 7 0 9 0;
#X connect 7 0 12 0;
#X connect 8 0 11 0;
#X connect 8 0 9 1;
#X connect 9 0 10 0;
#X connect 13 0 3 1;
#X connect 14 0 4 0;
#X connect 15 0 4 1;
#X connect 16 0 5 0;
#X connect 17 0 5 1;
#X connect 18 0 6 0;
#X connect 19 0 1 0;
#X connect 19 1 13 0;
#X connect 19 2 14 0;
#X connect 19 3 15 0;
#X connect 19 4 16 0;
#X connect 19 5 17 0;
#X connect 19 6 18 0;
#X connect 19 7 2 0;
#X restore 526 23 pd isLeap;
#N canvas 750 246 153 132 zero 0;
#X obj 26 36 r diff;
#X obj 26 58 == 0;
#X obj 76 80 s zeroStep;
#X obj 26 80 outlet;
#X connect 0 0 1 0;
#X connect 1 0 2 0;
#X connect 1 0 3 0;
#X restore 606 23 pd zero;
#X obj 606 45 tgl 15 0 empty empty empty 17 7 0 10 -262144 -1 -1 0
1;
#X obj 83 765 print note;
#X obj 382 600 *;
#X obj 406 581 r legato;
#X floatatom 276 136 5 0 0 0 legato legatoBox legato, f 5;
#N canvas 375 441 971 535 osc 0;
#X obj 28 248 * 40;
#X obj 28 270 + 10;
#X obj 17 333 s startNoteBox;
#X obj 28 292 i;
#X obj 124 324 i;
#X obj 123 407 s timeBox;
#X obj 267 246 * 100;
#X obj 267 268 s timeChanceBox;
#X obj 167 186 s on/offBox;
#X obj 511 390 * 15;
#X obj 511 442 s rangeUpBox;
#X obj 594 442 * -15;
#X obj 594 489 s rangeDownBox;
#X obj 594 464 i;
#X obj 511 412 i;
#X obj 530 358 r rangeOSC;
#X obj 217 209 s rangeOSC;
#X obj 376 269 s suspedalBox;
#X obj 68 46 loadbang;
#X msg 68 68 listen 8000;
#X obj 68 112 oscparse;
#X obj 68 134 list trim;
#X floatatom 28 178 5 0 0 0 - - -, f 5;
#X obj 68 90 netreceive -u -b;
#X floatatom 379 216 5 0 0 0 - - -, f 5;
#X obj 428 214 s scaleBox;
#X obj 515 215 s chordOnBox;
#X obj 312 198 clip 0 1;
#X obj 553 254 s keyBox;
#X obj 353 364 r rangeOSC;
#X obj 353 386 t f f, f 6;
#X obj 353 438 spigot;
#X obj 353 504 s octaveChanceBox;
#X obj 70 157 route freq time onOff freqRange timeChance suspedal scale
chord transpose legato, f 91;
#X floatatom 400 311 5 0 0 0 - - -, f 5;
#X floatatom 629 283 5 0 0 0 - - -, f 5;
#X obj 629 239 * -2;
#X obj 629 261 + 2.1;
#X obj 629 302 s legatoBox;
#X floatatom 785 75 5 0 0 0 - - -, f 5;
#X obj 785 94 log;
#X floatatom 785 116 5 0 0 0 - - -, f 5;
#X obj 386 409 > 0.5;
#X obj 353 460 - 0.5;
#X obj 353 482 * 170;
#X obj 414 431 sel 0;
#X obj 414 453 bng 15 250 50 0 empty empty empty 17 7 0 10 -262144
-1 -1;
#X msg 414 473 0;
#X floatatom 237 410 5 0 0 0 - - -, f 5;
#X floatatom 785 157 5 0 0 0 - - -, f 5;
#X floatatom 785 198 5 0 0 0 - - -, f 5;
#X obj 785 135 * 1;
#X obj 785 176 + 1;
#X obj 127 198 + 1;
#X obj 127 220 log;
#X obj 127 242 * 4000;
#X obj 127 264 + 100;
#X obj 124 346 clip 100 2600;
#X connect 0 0 1 0;
#X connect 1 0 3 0;
#X connect 3 0 2 0;
#X connect 4 0 57 0;
#X connect 6 0 7 0;
#X connect 9 0 14 0;
#X connect 11 0 13 0;
#X connect 13 0 12 0;
#X connect 14 0 10 0;
#X connect 15 0 9 0;
#X connect 15 0 11 0;
#X connect 18 0 19 0;
#X connect 19 0 23 0;
#X connect 20 0 21 0;
#X connect 21 0 33 0;
#X connect 22 0 0 0;
#X connect 23 0 20 0;
#X connect 27 0 6 0;
#X connect 29 0 30 0;
#X connect 30 0 31 0;
#X connect 30 1 42 0;
#X connect 31 0 43 0;
#X connect 33 0 22 0;
#X connect 33 1 53 0;
#X connect 33 2 8 0;
#X connect 33 3 16 0;
#X connect 33 4 24 0;
#X connect 33 4 27 0;
#X connect 33 5 17 0;
#X connect 33 5 34 0;
#X connect 33 6 25 0;
#X connect 33 7 26 0;
#X connect 33 8 28 0;
#X connect 33 9 36 0;
#X connect 35 0 38 0;
#X connect 36 0 37 0;
#X connect 37 0 35 0;
#X connect 39 0 40 0;
#X connect 40 0 41 0;
#X connect 41 0 51 0;
#X connect 42 0 31 1;
#X connect 42 0 45 0;
#X connect 43 0 44 0;
#X connect 44 0 32 0;
#X connect 45 0 46 0;
#X connect 46 0 47 0;
#X connect 47 0 32 0;
#X connect 49 0 52 0;
#X connect 51 0 49 0;
#X connect 52 0 50 0;
#X connect 53 0 54 0;
#X connect 54 0 55 0;
#X connect 55 0 56 0;
#X connect 56 0 4 0;
#X connect 57 0 5 0;
#X connect 57 0 48 0;
#X restore 11 33 pd osc;
#X floatatom 325 162 5 0 100 0 timeChance timeChanceBox timeChance
, f 5;
#N canvas 568 295 450 300 load 0;
#X obj 22 15 loadbang;
#X msg 22 37 \; rangeUpBox 15 \; rangeDownBox -5 \; startNoteBox 35
\; chordOnBox 1 \; timeBox 1000 \; octaveChanceBox 0 \; keyBox 0 \;
scaleBox 1 \; reset bang \; legatoBox 1.2 \; timeChanceBox 50 \;;
#X connect 0 0 1 0;
#X restore 11 12 pd load;
#X obj 382 622 s noteLength;
#X obj 109 707 r noteLength;
#N canvas 0 50 332 429 edges 0;
#X obj 71 85 inlet;
#X obj 90 132 > 20;
#X obj 110 163 < 109;
#X obj 90 194 &&;
#X obj 71 239 spigot;
#X obj 71 381 outlet;
#X obj 208 216 sel 0;
#X obj 208 238 bng 15 250 50 0 empty empty empty 17 7 0 10 -262144
-1 -1;
#X obj 248 216 sel 0;
#X obj 248 238 bng 15 250 50 0 empty empty empty 17 7 0 10 -262144
-1 -1;
#X obj 71 107 t f f f f;
#X obj 248 269 f;
#X floatatom 248 291 5 0 0 0 - - -, f 5;
#X obj 248 310 - 12;
#X floatatom 248 332 5 0 0 0 - - -, f 5;
#X obj 208 269 f;
#X floatatom 208 291 5 0 0 0 - - -, f 5;
#X floatatom 208 332 5 0 0 0 - - -, f 5;
#X obj 208 310 + 12;
#X connect 0 0 10 0;
#X connect 1 0 3 0;
#X connect 1 0 6 0;
#X connect 2 0 3 1;
#X connect 2 0 8 0;
#X connect 3 0 4 1;
#X connect 4 0 5 0;
#X connect 6 0 7 0;
#X connect 7 0 15 0;
#X connect 8 0 9 0;
#X connect 9 0 11 0;
#X connect 10 0 4 0;
#X connect 10 1 1 0;
#X connect 10 2 2 0;
#X connect 10 3 11 1;
#X connect 10 3 15 1;
#X connect 11 0 12 0;
#X connect 12 0 13 0;
#X connect 13 0 14 0;
#X connect 14 0 5 0;
#X connect 15 0 16 0;
#X connect 16 0 18 0;
#X connect 17 0 5 0;
#X connect 18 0 17 0;
#X restore 26 680 pd edges;
#X obj 282 190 tgl 15 0 suspedal suspedalBox sus 17 7 0 10 -262144
-1 -1 0 1;
#X obj 314 338 ctlout 64;
#X obj 312 291 * 65;
#X obj 312 271 r suspedal;
#X obj 65 644 * 0.4;
#X obj 65 666 + 20;
#X obj 358 664 r noteLength;
#X floatatom 309 72 5 0 0 0 range - rangeOSC, f 5;
#X connect 0 0 1 0;
#X connect 1 0 39 0;
#X connect 2 0 3 0;
#X connect 6 0 1 1;
#X connect 6 0 7 0;
#X connect 8 0 9 0;
#X connect 8 0 10 0;
#X connect 9 0 18 0;
#X connect 10 0 12 0;
#X connect 11 0 4 0;
#X connect 11 1 4 1;
#X connect 12 0 0 0;
#X connect 12 2 22 0;
#X connect 13 0 10 1;
#X connect 14 0 1 1;
#X connect 15 0 16 0;
#X connect 16 0 14 0;
#X connect 16 1 14 1;
#X connect 17 0 14 0;
#X connect 19 0 42 0;
#X connect 20 0 19 0;
#X connect 20 1 19 1;
#X connect 21 0 40 0;
#X connect 24 0 26 0;
#X connect 25 0 31 0;
#X connect 26 0 44 0;
#X connect 28 0 27 0;
#X connect 28 1 27 1;
#X connect 29 0 25 0;
#X connect 30 0 29 1;
#X connect 31 0 34 0;
#X connect 31 1 33 0;
#X connect 32 0 34 1;
#X connect 33 0 32 0;
#X connect 34 0 28 0;
#X connect 35 0 36 1;
#X connect 36 0 82 0;
#X connect 37 0 36 0;
#X connect 39 0 23 0;
#X connect 39 1 2 0;
#X connect 39 2 5 0;
#X connect 39 3 29 0;
#X connect 39 4 37 0;
#X connect 39 5 45 0;
#X connect 42 0 41 0;
#X connect 42 1 21 0;
#X connect 43 0 95 0;
#X connect 44 0 46 0;
#X connect 44 1 43 0;
#X connect 46 0 81 0;
#X connect 46 0 90 0;
#X connect 47 0 46 1;
#X connect 48 0 19 0;
#X connect 48 0 38 0;
#X connect 49 0 20 0;
#X connect 52 0 51 0;
#X connect 62 0 63 0;
#X connect 63 0 64 0;
#X connect 69 0 70 0;
#X connect 71 0 72 0;
#X connect 73 0 74 0;
#X connect 75 0 76 0;
#X connect 77 0 67 0;
#X connect 78 0 68 0;
#X connect 79 0 80 0;
#X connect 82 0 88 0;
#X connect 83 0 82 1;
#X connect 89 0 11 2;
#X connect 90 0 11 0;
#X connect 93 0 92 0;
#X connect 94 0 93 0;
#X connect 95 0 96 0;
#X connect 96 0 11 1;
#X connect 97 0 28 2;
#X coords 0 0 1 1 85 60 0;
