#N canvas 581 175 138 182 10;
#X obj 97 62 / 7;
#X obj 97 83 i;
#X obj 10 62 % 7;
#X obj 10 83 tabread scale;
#X obj 10 131 +, f 15;
#X obj 10 32 t f f, f 15;
#X obj 97 105 * 12;
#X obj 10 153 outlet;
#X obj 10 10 inlet;
#X connect 0 0 1 0;
#X connect 1 0 6 0;
#X connect 2 0 3 0;
#X connect 3 0 4 0;
#X connect 4 0 7 0;
#X connect 5 0 2 0;
#X connect 5 1 0 0;
#X connect 6 0 4 1;
#X connect 8 0 5 0;
